<?xml version="1.0" encoding="UTF-8"?>
<svg version="1.1" viewBox="0 0 60 60" xmlns="http://www.w3.org/2000/svg">
  <defs>
    <clipPath id="a">
      <path d="m0.60938 3.4023h58.777v53.223h-58.777z" />
    </clipPath>
  </defs>
  <path
    d="m34.109 26.535c0.98828-0.003906 0.39453-1.3398 3.1914-0.76172 0 0-2.3477-1.4102-4.5234-1.4102-1.3555 0-1.8711 0.77344-1.8711 0.77344s0.60938-0.015625 1.1953 0.3125c0.66016 0.36719 1.3398 1.0859 2.0078 1.0859"
    fill="#21c45d" />
  <g clip-path="url(#a)">
    <path
      d="m43.988 24.363c-0.64844-0.3125-1.3203-0.64453-2.0078-1-0.82422-0.42188-1.668-0.79297-2.5156-1.1562 4.9688-1.8242 4.1562-8.0234-0.54297-9.4297 6.125 0.26172 8.7227 7.0547 5.0664 11.586zm-24.418 9.3242c-2.8477 0.57812-5.2852 0.13672-7.332-1.7383 2.4102 0.15234 4.207-1.8516 5.8047-3.0898 1.75-1.3477 3.1914-1.9492 3.1914-1.9492-16.438-5.5039-9.7383-19.988-0.77734-16.98-5.4609-0.41797-8.5391 6.4844-2.207 9.7305 1.9336 0.99219 4.6523 0.98828 5.8945 1.082 0.45312 0.035156 0.59766 0.35547 0.59766 0.35547 3.5039-0.75 7.2461-0.34766 10.516 1.125 1.5781 0.71484 3.1953 1.332 4.7383 2.125 5.3125 2.7266 8.8516 4.2578 10.832 3.3242 0.48047-0.22656 1-0.33203 1.3906 0.03125 2.7617 2.5391 0.61328 9.0156-3.0625 11.172-1.75-2.0859-7.7969-2.0781-11.965 0.57422-4.7539 3.0312-5.4844 8.3047-5.3203 10.203 0 0 1.9336-8.8477 10.336-8.8477 0 0-2.8633 0.81641-3.7266 3.457 5.6758 0.94922 8.2617 6.8594 13.895 7.5781 4.3711-5.1289 7.0117-11.781 7.0117-19.051 0-16.23-13.156-29.387-29.387-29.387s-29.387 13.156-29.387 29.387c0 9.7969 4.793 18.473 12.164 23.812-3.582-13.48 6.793-22.914 6.793-22.914"
      fill="#21c45d" />
  </g>
  <path
    d="m52.273 31.047s0.16406-0.62109 0-1.1016c-0.34766-1.0195-1.3945-1.1914-1.5586-0.12109 0 0 1.3359-0.54688 1.5586 1.2227"
    fill="#21c45d" />
</svg>